<svg width="389" height="70" viewBox="0 0 389 70" fill="none" xmlns="http://www.w3.org/2000/svg">
<g clip-path="url(#clip0_10616_3258)">
<path fill-rule="evenodd" clip-rule="evenodd" d="M131.697 5.67568V18.6562H145.728L140.631 29.4294H131.697V68.5285H120.293V5.67568H131.697ZM374.568 5.67568V18.6562H388.626L383.529 29.4294H374.595V68.5285H363.191V5.67568H374.595H374.568ZM343.431 68.5023V41.28C343.431 33.7125 338.018 28.1156 330.95 28.1156C323.881 28.1156 318.468 33.7125 318.468 41.28V68.5023H307.065V41.28C307.065 27.9054 317.68 17.1584 330.923 17.1584C344.167 17.1584 354.782 27.9317 354.782 41.28V68.5023H343.378H343.431ZM193.682 18.6562H206.742L221.877 47.4812L237.012 18.6562H249.493L221.588 70L193.682 18.6562ZM100.48 43.5923C100.48 34.711 94.0954 28.1419 85.7395 28.1419C77.3836 28.1419 70.9985 34.711 70.9985 43.5923C70.9985 52.4737 77.3836 59.0428 85.7395 59.0428C94.0954 59.0428 100.48 52.4737 100.48 43.5923ZM59.4369 43.5923C59.4369 29.0353 71.3138 17.1584 85.7658 17.1584C100.218 17.1584 111.884 28.72 111.884 43.3821V69.5008L101.085 64.2192C96.7755 67.8191 91.2575 70 85.2665 70C71.1299 70 59.4369 58.1231 59.4369 43.5661V43.5923ZM287.594 43.5923C287.594 34.711 281.209 28.1419 272.853 28.1419C264.497 28.1419 258.112 34.711 258.112 43.5923C258.112 52.4737 264.497 59.0428 272.853 59.0428C281.209 59.0428 287.594 52.4737 287.594 43.5923ZM246.55 43.5923C246.55 29.0353 258.427 17.1584 272.879 17.1584C287.331 17.1584 298.998 28.72 298.998 43.3821V69.5008L288.198 64.2192C283.889 67.8191 278.371 70 272.38 70C258.243 70 246.55 58.1231 246.55 43.5661V43.5923ZM184.092 43.5923C184.092 34.711 177.706 28.1419 169.351 28.1419C160.995 28.1419 154.61 34.711 154.61 43.5923C154.61 52.4737 160.995 59.0428 169.351 59.0428C177.706 59.0428 184.092 52.4737 184.092 43.5923ZM143.048 43.5923C143.048 29.0353 154.925 17.1584 169.377 17.1584C183.829 17.1584 195.496 28.72 195.496 43.3821V69.5008L184.696 64.2192C180.387 67.8191 174.869 70 168.878 70C154.741 70 143.048 58.1231 143.048 43.5661V43.5923ZM41.0961 43.5923C41.0961 34.711 34.711 28.1419 26.3551 28.1419C17.9993 28.1419 11.6141 34.711 11.6141 43.5923C11.6141 52.4737 17.9993 59.0428 26.3551 59.0428C34.711 59.0428 41.0961 52.4737 41.0961 43.5923ZM0.0525526 43.5923C0 29.009 11.4827 17.1584 25.4354 17.1584C31.3213 17.1584 36.7342 19.3393 41.0435 23.0443V0H52.4474V69.5008L41.6479 64.2192C37.3386 67.8191 31.8206 70 25.8296 70C11.6929 70 0 58.1231 0 43.5661L0.0525526 43.5923Z" fill="#020202"/>
</g>
<defs>
<clipPath id="clip0_10616_3258">
<rect width="388.626" height="70" fill="white"/>
</clipPath>
</defs>
</svg>
